<svg width="791" height="238" viewBox="0 0 791 238" fill="none" xmlns="http://www.w3.org/2000/svg">
<path d="M14.7 237C4.9 236.8 1.3 231.7 3.9 221.7L47.4 59.4C49.8 49.4 56.1 44.4 66.3 44.4H75.3C80.3 44.4 82.1 46.9 80.7 51.9L72.9 82.8C71.5 87.8 73.3 90.2 78.3 90L104.4 89.1C109.4 88.9 112.6 86.3 114 81.3L133.8 7.50001C135 2.5 138.2 9.53674e-07 143.4 9.53674e-07H154.5C164.5 9.53674e-07 168.1 5 165.3 15L117 195.3C114.2 205.3 107.9 210.3 98.1 210.3H87C82 210.3 80.1 207.8 81.3 202.8L101.7 126.6C103.1 121.6 101.2 119.4 96 120L69.3 123.6C64.1 124.2 60.9 127 59.7 132L33.9 230.1C32.5 235.1 29.4 237.5 24.6 237.3L14.7 237ZM184.889 146.7C179.489 147.7 176.189 150.6 174.989 155.4L169.889 172.2C168.489 177.2 170.289 179.7 175.289 179.7H193.289C198.289 179.7 201.489 177.2 202.889 172.2L204.389 167.7C205.589 162.7 208.689 160.2 213.689 160.2H228.389C233.389 160.2 235.289 162.7 234.089 167.7L230.489 180C224.889 200 211.989 210 191.789 210H158.789C138.589 210 131.189 200 136.589 180L160.289 90C165.689 70 178.289 60 198.089 60H232.589C252.589 60 259.889 70 254.489 90L250.289 106.8C244.889 126.8 231.889 138.6 211.289 142.2L184.889 146.7ZM186.689 111.9C185.289 116.9 187.189 119 192.389 118.2L207.089 115.8C212.289 115 215.589 112.1 216.989 107.1L220.889 93C222.089 88 220.189 85.6 215.189 85.8L200.789 86.4C195.789 86.6 192.589 89.2 191.189 94.2L186.689 111.9ZM245.259 210C240.259 210 238.459 207.5 239.859 202.5L275.859 67.5C277.259 62.5 280.459 60 285.459 60H307.359C310.559 60 311.759 61.6 310.959 64.8C310.159 68 311.359 68.8 314.559 67.2C319.159 64.8 324.459 62.6 330.459 60.6C336.459 58.4 342.159 57.3 347.559 57.3C354.959 57.3 359.959 59.9 362.559 65.1C365.159 70.3 365.059 77.5 362.259 86.7L355.059 111.9C353.659 116.9 350.459 119.4 345.459 119.4H329.559C324.559 119.4 322.759 116.9 324.159 111.9L328.359 96.6C329.759 91.6 327.959 89.1 322.959 89.1H311.559C306.559 89.1 303.359 91.6 301.959 96.6L272.259 202.5C270.859 207.5 267.659 210 262.659 210H245.259ZM385.493 67.5C386.893 62.5 390.193 60 395.393 60H414.893C417.493 60 419.293 60.6 420.293 61.8C421.493 63 421.493 64.9 420.293 67.5C419.093 70.3 418.893 72 419.693 72.6C420.693 73.2 422.393 72.7 424.793 71.1C427.393 69.3 430.293 67.5 433.493 65.7C436.893 63.9 440.393 62.3 443.993 60.9C447.593 59.3 451.093 58 454.493 57C458.093 56 461.493 55.5 464.693 55.5C473.293 55.5 479.093 58.4 482.093 64.2C483.693 66.4 485.193 67.5 486.593 67.5C487.793 67.5 489.393 66.9 491.393 65.7C495.793 62.9 500.493 60.5 505.493 58.5C510.493 56.3 515.493 55.2 520.493 55.2C529.693 55.2 536.093 58.5 539.693 65.1C543.293 71.7 543.593 80.5 540.593 91.5L500.993 229.2C499.593 234.2 496.393 236.7 491.393 236.7H473.093C468.093 236.7 466.293 234.2 467.693 229.2L504.593 100.5C505.793 95.5 503.993 93 499.193 93H488.993C483.593 93 480.293 95.5 479.093 100.5L449.393 202.5C447.993 207.5 444.693 210 439.493 210H419.693C414.693 210 412.893 207.5 414.293 202.5L442.193 100.5C443.393 95.5 441.593 93 436.793 93H420.893C415.693 93 412.493 95.5 411.293 100.5L382.493 202.5C381.093 207.5 377.893 210 372.893 210H352.193C347.193 210 345.393 207.5 346.793 202.5L385.493 67.5ZM580.69 146.7C575.29 147.7 571.99 150.6 570.79 155.4L565.69 172.2C564.29 177.2 566.09 179.7 571.09 179.7H589.09C594.09 179.7 597.29 177.2 598.69 172.2L600.19 167.7C601.39 162.7 604.49 160.2 609.49 160.2H624.19C629.19 160.2 631.09 162.7 629.89 167.7L626.29 180C620.69 200 607.79 210 587.59 210H554.59C534.39 210 526.99 200 532.39 180L556.09 90C561.49 70 574.09 60 593.89 60H628.39C648.39 60 655.69 70 650.29 90L646.09 106.8C640.69 126.8 627.69 138.6 607.09 142.2L580.69 146.7ZM582.49 111.9C581.09 116.9 582.99 119 588.19 118.2L602.89 115.8C608.09 115 611.39 112.1 612.79 107.1L616.69 93C617.89 88 615.99 85.6 610.99 85.8L596.59 86.4C591.59 86.6 588.39 89.2 586.99 94.2L582.49 111.9ZM708.26 60.3C713.26 60.1 716.36 62.2 717.56 66.6L723.26 88.2C723.86 90.4 724.76 91.5 725.96 91.5C727.16 91.5 728.66 90.4 730.46 88.2L747.86 66.6C751.46 62.2 755.76 60 760.76 60H782.96C787.96 60 788.66 62.2 785.06 66.6L739.46 122.4C735.86 126.8 734.66 131.2 735.86 135.6L753.86 203.4C755.06 207.8 753.16 210 748.16 210H721.76C716.76 210 713.66 207.8 712.46 203.4L704.96 173.4C704.36 171.2 703.46 170.1 702.26 170.1C700.86 170.1 699.36 171.2 697.76 173.4L673.16 203.4C669.56 207.8 665.26 210 660.26 210H638.66C633.66 210 632.96 207.8 636.56 203.4L689.06 138.9C692.46 134.7 693.56 130.3 692.36 125.7L677.96 68.4C676.76 64 678.76 61.7 683.96 61.5L708.26 60.3Z" fill="#2DD4BF"/>
</svg>
