<svg width="170" height="238" viewBox="0 0 170 238" fill="none" xmlns="http://www.w3.org/2000/svg">
<path d="M14.7 237C4.9 236.8 1.3 231.7 3.9 221.7L47.4 59.4C49.8 49.4 56.1 44.4 66.3 44.4H75.3C80.3 44.4 82.1 46.9 80.7 51.9L72.9 82.8C71.5 87.8 73.3 90.2 78.3 90L104.4 89.1C109.4 88.9 112.6 86.3 114 81.3L133.8 7.5C135 2.49999 138.2 -1.43051e-05 143.4 -1.43051e-05H154.5C164.5 -1.43051e-05 168.1 4.99999 165.3 15L117 195.3C114.2 205.3 107.9 210.3 98.1 210.3H87C82 210.3 80.1 207.8 81.3 202.8L101.7 126.6C103.1 121.6 101.2 119.4 96 120L69.3 123.6C64.1 124.2 60.9 127 59.7 132L33.9 230.1C32.5 235.1 29.4 237.5 24.6 237.3L14.7 237Z" fill="#2DD4BF"/>
</svg>
